<svg width="453" height="248" viewBox="0 0 453 248" fill="none" xmlns="http://www.w3.org/2000/svg">
<g clip-path="url(#clip0)">
<path opacity="0.1" d="M418.268 196.107C417.763 197.226 417.26 198.33 416.759 199.419C415.975 201.11 415.203 202.769 414.44 204.395C414.101 205.115 413.761 205.822 413.431 206.53C409.689 214.392 406.196 221.347 403.229 227.066C400.537 232.248 396.54 236.59 391.656 239.637C386.772 242.684 381.182 244.324 375.47 244.385L309.499 245.123H308.803L303.147 245.186L298.31 245.24L283.476 245.405H282.875L275.323 245.49H275.093L228.545 246.009L186.996 246.457L182.163 246.511L152.146 246.846H152.111L132.644 247.061H132.435L70.879 247.746L52.4644 247.952C48.5347 247.997 44.6216 247.421 40.8623 246.242C34.3205 244.209 28.4412 240.38 23.8572 235.166C15.9485 226.202 10.1844 215.744 6.31266 204.395C5.75293 202.757 5.2309 201.098 4.74657 199.419C-8.65654 152.81 7.68299 92.677 37.0907 52.4363C38.3232 50.7537 39.5761 49.1128 40.8493 47.5136L40.8797 47.4778C49.9239 36.0572 60.0643 26.5162 70.866 19.7318C90.0071 7.68918 111.215 4.29701 132.074 14.4064C149.723 22.9629 166.202 26.9861 182.176 28.078C183.79 28.1854 185.404 28.266 187.009 28.3152C223.651 29.5011 257.992 15.919 298.319 7.15216C299.924 6.8031 301.534 6.45851 303.156 6.13183C331.924 0.242515 363.838 -2.86324 401.789 3.66602C405.732 4.32864 409.623 5.28587 413.431 6.53012C415.104 7.08504 416.716 7.68172 418.268 8.32018C436.382 15.9011 446.262 29.9084 450.46 47.4599C450.857 49.0889 451.201 50.7462 451.491 52.4318C458.934 94.6505 437.135 154.537 418.268 196.107Z" fill="#E50914"/>
<g opacity="0.1">
<path opacity="0.1" d="M70.8656 19.731V247.794L52.451 248C48.5213 248.046 44.6081 247.469 40.8489 246.29V47.477H40.8793C49.9235 36.0429 60.0639 26.5019 70.8656 19.731Z" fill="#E50914"/>
<path opacity="0.1" d="M451.512 52.4354H37.0901C38.3227 50.7527 39.5755 49.1118 40.8487 47.5127V47.4769H450.481C450.878 49.0969 451.222 50.7498 451.512 52.4354Z" fill="#E50914"/>
<path opacity="0.1" d="M418.268 8.32383V199.413H416.758C415.975 201.105 415.202 202.764 414.439 204.39C414.1 205.11 413.761 205.817 413.43 206.524V6.51587C415.104 7.07079 416.716 7.67344 418.268 8.32383Z" fill="#E50914"/>
<path opacity="0.1" d="M303.156 6.11755V245.203L298.318 245.257V7.13789C299.924 6.78883 301.533 6.44424 303.156 6.11755Z" fill="#E50914"/>
<path opacity="0.1" d="M187.008 28.3009V246.501L182.175 246.555V28.0637C183.789 28.1711 185.403 28.2338 187.008 28.3009Z" fill="#E50914"/>
<path opacity="0.1" d="M416.758 199.418C415.975 201.109 415.202 202.768 414.439 204.394H6.31218C5.75245 202.756 5.23042 201.097 4.74609 199.418H416.758Z" fill="#E50914"/>
</g>
<path d="M100.317 118.963H92.0513V144.767H100.317V118.963Z" fill="#3F3D56"/>
<path d="M322.758 117.621H314.493V144.919H322.758V117.621Z" fill="#3F3D56"/>
<path d="M375.47 238.817V244.635L309.381 245.261L308.676 245.275L283.558 245.512L282.958 245.521L275.323 245.588H275.097L228.558 246.031L152.163 246.76H152.098L132.674 246.948L132.465 246.953L46.1562 247.767V241.055L66.4502 228.524L107.168 228.175L108.039 228.171L108.326 228.166L109.196 228.153L128.746 227.987L129.62 227.983L129.899 227.978L130.769 227.974L137.037 227.92L137.203 227.915L152.668 227.781H152.794L273.47 226.734L276.424 226.712H276.719L278.973 226.689L295.352 226.551L296.222 226.537L297.026 226.528H297.444L302.538 226.488L303.547 226.474L304.9 226.466L309.142 226.425L315.872 226.367L316.742 226.358L318.256 226.349H318.538L351.039 226.063L375.47 238.817Z" fill="#65617D"/>
<path opacity="0.2" d="M375.47 238.817V244.635L309.381 245.261L308.676 245.275L283.558 245.512L282.958 245.521L275.323 245.588H275.097L228.558 246.031L152.163 246.76H152.098L132.674 246.948L132.465 246.953L46.1562 247.767V241.055L66.4502 228.524L107.168 228.175L108.039 228.171L108.326 228.166L109.196 228.153L128.746 227.987L129.62 227.983L129.899 227.978L130.769 227.974L137.037 227.92L137.203 227.915L152.668 227.781H152.794L273.47 226.734L276.424 226.712H276.719L278.973 226.689L295.352 226.551L296.222 226.537L297.026 226.528H297.444L302.538 226.488L303.547 226.474L304.9 226.466L309.142 226.425L315.872 226.367L316.742 226.358L318.256 226.349H318.538L351.039 226.063L375.47 238.817Z" fill="black"/>
<path d="M128.811 216.446V227.405C128.811 227.924 128.668 228.433 128.399 228.872C128.129 229.311 127.744 229.662 127.288 229.885C126.949 230.054 126.578 230.146 126.201 230.153L111.018 230.484C110.613 230.494 110.211 230.407 109.844 230.229C109.38 230.01 108.987 229.659 108.712 229.217C108.436 228.775 108.29 228.261 108.291 227.737V216.446H128.811Z" fill="#3F3D56"/>
<path opacity="0.1" d="M128.811 216.446V227.405C128.811 227.924 128.668 228.433 128.399 228.872C128.129 229.311 127.744 229.662 127.288 229.885C126.949 230.054 126.578 230.146 126.201 230.153L111.018 230.484C110.613 230.494 110.211 230.407 109.844 230.229C109.38 230.01 108.987 229.659 108.712 229.217C108.436 228.775 108.29 228.261 108.291 227.737V216.446H128.811Z" fill="black"/>
<path d="M129.681 216.446V227.405C129.681 227.924 129.538 228.433 129.269 228.872C128.999 229.311 128.614 229.662 128.158 229.885C127.819 230.054 127.448 230.146 127.071 230.153L111.889 230.484C111.483 230.494 111.081 230.407 110.714 230.229C110.25 230.01 109.857 229.659 109.582 229.217C109.306 228.775 109.16 228.261 109.161 227.737V216.446H129.681Z" fill="#3F3D56"/>
<path d="M316.742 216.446H296.222V230.542H316.742V216.446Z" fill="#3F3D56"/>
<path opacity="0.1" d="M316.742 216.446H296.222V230.542H316.742V216.446Z" fill="black"/>
<path d="M315.872 216.446H295.352V230.542H315.872V216.446Z" fill="#3F3D56"/>
<path opacity="0.1" d="M100.317 118.959V121.523L92.0513 121.304V118.959H100.317Z" fill="black"/>
<path d="M154.721 46.7207L144.789 120.113C144.726 120.582 144.498 121.011 144.147 121.317C143.796 121.623 143.348 121.786 142.888 121.774L63.3656 119.652L61.8561 119.612C61.5932 119.606 61.3347 119.542 61.0972 119.426C60.8598 119.31 60.6488 119.144 60.4781 118.938C60.3073 118.733 60.1806 118.492 60.1062 118.233C60.0318 117.973 60.0114 117.701 60.0464 117.433L71.1961 40.6031C71.2679 40.1272 71.5107 39.6964 71.8763 39.3956C72.242 39.0948 72.704 38.9461 73.1711 38.9787L152.981 44.5368C153.238 44.5522 153.49 44.6222 153.72 44.7427C153.949 44.8631 154.153 45.0312 154.316 45.2364C154.48 45.4416 154.6 45.6794 154.67 45.9349C154.739 46.1904 154.757 46.4579 154.721 46.7207Z" fill="#65617D"/>
<path d="M76.534 44.3757L68.125 112.098L141.209 114.484L150.197 49.1463L76.534 44.3757Z" fill="#89FF00"/>
<path d="M254.028 43.3285H169.629C168.349 43.3285 167.311 44.3964 167.311 45.7138V118.511C167.311 119.829 168.349 120.896 169.629 120.896H254.028C255.309 120.896 256.347 119.829 256.347 118.511V45.7138C256.347 44.3964 255.309 43.3285 254.028 43.3285Z" fill="#65617D"/>
<path d="M252.427 48.551H171.513V113.141H252.427V48.551Z" fill="#FF005E"/>
<path opacity="0.1" d="M322.758 117.616V119.312L314.493 119.487V117.616H322.758Z" fill="black"/>
<path d="M360.052 116.184C360.064 116.37 360.039 116.555 359.98 116.731C359.92 116.906 359.826 117.067 359.704 117.204C359.582 117.341 359.435 117.452 359.27 117.529C359.106 117.606 358.928 117.648 358.747 117.652L277.311 119.384C276.972 119.391 276.644 119.266 276.391 119.035C276.139 118.803 275.981 118.482 275.949 118.135L268.949 43.2748C268.932 43.0891 268.952 42.9017 269.007 42.7239C269.062 42.5462 269.152 42.3819 269.271 42.2409C269.389 42.0999 269.535 41.9851 269.698 41.9036C269.861 41.8221 270.039 41.7755 270.22 41.7667L351.039 37.6316L351.909 37.5869C352.255 37.5681 352.594 37.6883 352.855 37.9221C353.117 38.1559 353.28 38.485 353.309 38.8399L360.052 116.184Z" fill="#65617D"/>
<path d="M273.6 46.1658L347.411 42.4335L353.645 110.456L280.417 112.246L273.6 46.1658Z" fill="#772AFF"/>
<path opacity="0.1" d="M360.053 116.184C360.065 116.37 360.04 116.555 359.98 116.731C359.92 116.906 359.826 117.067 359.704 117.204C359.583 117.341 359.435 117.452 359.271 117.529C359.106 117.606 358.928 117.648 358.748 117.652L351.039 37.6316L351.909 37.5869C352.255 37.5681 352.594 37.6883 352.856 37.9221C353.117 38.1559 353.28 38.485 353.31 38.8399L360.053 116.184Z" fill="black"/>
<path opacity="0.1" d="M73.1841 38.9742L63.3656 119.652L61.8561 119.612C61.5932 119.606 61.3347 119.542 61.0972 119.426C60.8598 119.31 60.6488 119.144 60.4781 118.938C60.3073 118.733 60.1806 118.492 60.1062 118.233C60.0318 117.973 60.0114 117.701 60.0464 117.433L71.1961 40.6031C71.2671 40.124 71.5113 39.69 71.8799 39.388C72.2484 39.086 72.7142 38.9382 73.1841 38.9742Z" fill="black"/>
<path opacity="0.1" d="M100.317 137.123H92.0513V144.767H100.317V137.123Z" fill="black"/>
<path opacity="0.1" d="M129.681 216.441V218.665L109.161 219.229V216.441H129.681Z" fill="black"/>
<path d="M165.897 139.786V215.058C165.892 215.518 165.715 215.958 165.403 216.287C165.091 216.616 164.668 216.809 164.222 216.826L80.8495 219.108H80.8277C80.3737 219.103 79.9399 218.914 79.6189 218.584C79.2979 218.254 79.115 217.808 79.1094 217.341V139.786C79.115 139.319 79.2979 138.873 79.6189 138.543C79.9399 138.212 80.3737 138.024 80.8277 138.018H164.178C164.632 138.024 165.066 138.212 165.387 138.543C165.708 138.873 165.891 139.319 165.897 139.786Z" fill="#65617D"/>
<path opacity="0.1" d="M80.8495 138.018V219.108H80.8277C80.3738 219.103 79.9399 218.914 79.6189 218.584C79.2979 218.254 79.115 217.808 79.1094 217.341V139.786C79.115 139.319 79.2979 138.873 79.6189 138.543C79.9399 138.212 80.3738 138.024 80.8277 138.018H80.8495Z" fill="black"/>
<path d="M84.6558 142.825H161.873V209.169L84.6558 210.959V142.825Z" fill="#D4DFEC"/>
<path opacity="0.1" d="M322.758 137.123H314.493V144.919H322.758V137.123Z" fill="black"/>
<path opacity="0.1" d="M315.872 216.441V219.31L295.352 218.746V216.441H315.872Z" fill="black"/>
<path d="M342.952 139.786V217.341C342.946 217.812 342.76 218.261 342.435 218.592C342.109 218.923 341.669 219.108 341.212 219.108L257.822 216.826C257.375 216.809 256.953 216.616 256.641 216.287C256.329 215.958 256.152 215.518 256.147 215.058V139.786C256.153 139.319 256.335 138.873 256.657 138.543C256.978 138.212 257.411 138.024 257.865 138.018H341.216C341.673 138.02 342.111 138.206 342.436 138.536C342.761 138.867 342.946 139.316 342.952 139.786Z" fill="#65617D"/>
<path opacity="0.1" d="M342.952 139.786V217.341C342.946 217.812 342.76 218.261 342.434 218.592C342.109 218.923 341.669 219.108 341.211 219.108V138.018C341.669 138.018 342.109 138.204 342.434 138.535C342.76 138.866 342.946 139.315 342.952 139.786Z" fill="black"/>
<path d="M337.405 142.825H260.188V209.169L337.405 210.959V142.825Z" fill="#D4DFEC"/>
<path d="M253.989 139.786V215.058C253.984 215.518 253.807 215.958 253.495 216.287C253.183 216.616 252.761 216.809 252.314 216.826L168.942 219.108C168.484 219.108 168.045 218.923 167.719 218.592C167.393 218.261 167.207 217.812 167.202 217.341V139.786C167.207 139.319 167.39 138.873 167.711 138.543C168.032 138.212 168.466 138.024 168.92 138.018H252.271C252.725 138.024 253.159 138.212 253.48 138.543C253.801 138.873 253.983 139.319 253.989 139.786Z" fill="#65617D"/>
<path d="M172.749 142.825H249.965V209.169L172.749 210.959V142.825Z" fill="#D4DFEC"/>
<path opacity="0.1" d="M375.47 238.817V244.635L309.381 245.261L308.676 245.275L283.558 245.512L282.958 245.521L275.323 245.588H275.097L228.558 246.031L152.163 246.76H152.098L132.674 246.948L132.465 246.953L46.1562 247.767V241.055L134.253 240.459H134.462L152.294 240.334H152.376L275.523 239.497H275.649L275.723 239.493H275.928L278.011 239.479H278.647L311.052 239.256L312.966 239.247L313.392 239.242L375.47 238.817Z" fill="black"/>
<path d="M211.97 144.767C224.303 144.767 234.3 134.483 234.3 121.796C234.3 109.109 224.303 98.825 211.97 98.825C199.638 98.825 189.641 109.109 189.641 121.796C189.641 134.483 199.638 144.767 211.97 144.767Z" fill="#FBBEBE"/>
<path d="M234.304 168.785C234.304 168.785 191.019 174.155 195.152 168.785C196.649 166.843 197.062 161.088 196.979 154.532C196.953 152.54 196.884 150.477 196.784 148.423C196.305 138.578 195.152 128.956 195.152 128.956C195.152 128.956 232.999 110.608 228.649 125.152C226.909 131.028 227.479 139.28 228.801 147.027C229.189 149.287 229.637 151.502 230.106 153.605C231.253 158.736 232.654 163.802 234.304 168.785Z" fill="#FBBEBE"/>
<path opacity="0.1" d="M234.304 168.785C234.304 168.785 191.019 174.155 195.152 168.785C196.649 166.843 197.062 161.088 196.979 154.532C203.579 151.632 211.975 153.793 211.975 153.793C220.814 151.981 226.483 152.335 230.106 153.605C231.253 158.736 232.654 163.802 234.304 168.785Z" fill="black"/>
<path d="M152.146 247.266V246.89L228.545 246.035L275.092 245.588H275.223L275.175 246.25L275.24 245.588H275.323V245.512L275.919 239.493L276.145 237.215L276.215 236.503L276.276 235.908L278.964 226.685L281.652 217.475L283.915 209.72L287.369 197.869C287.369 197.869 285.411 193.17 284.324 191.828C283.236 190.485 282.148 181.311 282.148 181.311C282.148 181.311 272.865 172.213 268.806 171.166C267.105 170.719 263.747 170.123 260.18 169.376C258.844 169.098 257.474 168.803 256.156 168.481C255.412 168.306 254.681 168.123 253.981 167.939C252.617 167.589 251.274 167.162 249.957 166.66C249.266 166.401 248.608 166.057 247.999 165.635C244.802 163.223 236.788 162.95 236.479 162.95C236.479 162.939 236.479 162.929 236.479 162.918V162.878C236.491 162.69 236.491 162.502 236.479 162.314C236.479 162.135 236.479 161.925 236.44 161.688C236.44 161.616 236.44 161.54 236.41 161.464C236.388 161.303 236.362 161.133 236.323 160.954C236.31 160.874 236.292 160.795 236.271 160.717C236.145 160.177 235.962 159.654 235.727 159.155C235.696 159.083 235.657 159.007 235.622 158.935C235.409 158.522 235.162 158.128 234.883 157.758C234.826 157.682 234.765 157.602 234.7 157.526C234.344 157.093 233.948 156.698 233.517 156.344C233.4 156.25 233.278 156.152 233.152 156.062C233.081 156.004 233.007 155.95 232.93 155.901L232.543 155.642L232.181 155.427C231.864 155.248 231.529 155.073 231.163 154.908C231.05 154.854 230.929 154.805 230.807 154.756C230.685 154.706 230.494 154.63 230.333 154.568H230.306L229.98 154.433C229.732 154.348 229.48 154.272 229.215 154.196L228.81 154.089L228.375 153.986L227.94 153.892C227.505 153.802 227.039 153.722 226.552 153.659L226.056 153.597L225.547 153.543L225.021 153.498L224.273 153.453L223.403 153.422C219.565 153.422 215.739 153.84 211.988 154.671C209.382 154.074 206.712 153.821 204.044 153.919H203.666L203.231 153.946H202.952L202.391 153.999C202.204 153.999 202.012 154.04 201.825 154.066C201.638 154.093 201.443 154.116 201.256 154.147L200.968 154.196C200.686 154.245 200.399 154.299 200.098 154.362C200.003 154.38 199.907 154.402 199.811 154.429C199.433 154.514 199.054 154.617 198.68 154.733C198.493 154.787 198.306 154.85 198.119 154.917C198.023 154.944 197.932 154.979 197.841 155.015L197.562 155.118L197.288 155.23L196.962 155.364C196.797 155.436 196.636 155.512 196.475 155.592C196.383 155.633 196.292 155.677 196.205 155.727C196.118 155.776 196.027 155.816 195.944 155.865C194.96 156.388 194.051 157.048 193.242 157.826L193.021 158.045L192.803 158.273C192.729 158.349 192.659 158.43 192.59 158.51C192.306 158.829 192.042 159.165 191.798 159.517C191.728 159.611 191.663 159.705 191.598 159.804C191.322 160.222 191.072 160.659 190.85 161.11C190.793 161.218 190.741 161.33 190.689 161.437C190.334 162.193 190.043 162.979 189.819 163.786C189.738 164.085 189.664 164.383 189.597 164.682C189.597 164.682 180.387 168.861 172.748 171.887C170.717 172.692 168.803 173.421 167.202 173.972C166.736 174.133 166.301 174.281 165.897 174.419C165.019 174.746 164.106 174.962 163.178 175.064C162.74 175.071 162.304 175.113 161.873 175.189C158.362 175.775 152.346 178.322 151.689 180.877C151.635 181.081 151.621 181.294 151.645 181.504C151.645 181.504 151.645 181.535 151.645 181.553C152.08 184.685 149.035 184.238 149.035 184.238C149.035 184.238 147.948 192.517 146.425 194.755C145.324 196.366 144.572 199.959 144.476 202.671C144.421 203.516 144.486 204.365 144.668 205.191C144.668 205.213 144.668 205.235 144.668 205.253C144.842 205.853 144.424 207.491 143.715 209.59C142.945 211.894 141.822 214.759 140.744 217.462C139.117 221.543 137.585 225.248 137.49 226.063C137.45 226.425 137.337 227.074 137.181 227.911C136.546 231.321 135.136 237.815 134.44 240.442C133.922 242.402 133.17 245.087 132.652 246.93C132.652 246.984 132.622 247.038 132.609 247.087L152.111 246.89V247.266H152.172H152.146Z" fill="#E50914"/>
<path opacity="0.1" d="M159.263 194.517C159.263 194.517 184.059 207.719 192.977 206.153L159.263 194.517Z" fill="black"/>
<path opacity="0.1" d="M209.726 189.147C209.726 189.147 233.869 197.202 241.917 198.321C249.965 199.44 209.726 189.147 209.726 189.147Z" fill="black"/>
<path opacity="0.1" d="M236.506 163.227C223.89 165.617 200.138 165.102 189.871 164.74C193.634 150.867 211.983 155.583 211.983 155.583C234.696 150.92 236.436 160.596 236.506 163.227Z" fill="black"/>
<path d="M236.506 162.332C223.89 164.722 200.138 164.207 189.871 163.845C193.634 149.972 211.983 154.688 211.983 154.688C234.696 150.025 236.436 159.701 236.506 162.332Z" fill="#E50914"/>
<path d="M303.473 223.494C303.473 223.494 318.334 221.145 318.625 227.857C318.917 234.57 311.047 239.26 311.047 239.26L303.473 223.494Z" fill="#FBBEBE"/>
<path opacity="0.1" d="M228.801 147.027C228.162 147.321 227.509 147.581 226.844 147.806C222.154 149.47 217.425 151.149 212.488 151.757C207.55 152.366 202.369 151.829 198.062 149.296C197.61 149.033 197.174 148.742 196.757 148.423C196.279 138.578 195.126 128.956 195.126 128.956C195.126 128.956 232.973 110.608 228.623 125.152C226.891 131.028 227.479 139.28 228.801 147.027Z" fill="black"/>
<path d="M205.845 85.8918C205.224 86.0605 204.574 86.0775 203.945 85.9415C203.317 85.8055 202.728 85.5203 202.226 85.1086L203.13 86.4019C202.597 86.4653 202.057 86.4079 201.547 86.234C201.038 86.0601 200.572 85.7737 200.181 85.395C200.099 86.5528 200.146 87.7164 200.32 88.8633C198.823 88.9376 197.349 88.4617 196.161 87.5207C196.138 87.9245 196.236 88.3258 196.441 88.6707C196.647 89.0155 196.95 89.2874 197.31 89.4495C195.806 89.2647 194.288 89.6491 193.039 90.531C191.79 91.413 190.896 92.7321 190.523 94.2424L192.794 94.4572C191.01 94.8493 189.408 95.8547 188.253 97.3079C187.557 98.2029 187.026 99.3486 187.33 100.441C187.635 101.532 189.105 102.231 189.906 101.452C188.767 102.85 187.94 104.487 187.481 106.249C187.023 108.011 186.945 109.855 187.252 111.651C187.459 112.416 187.526 113.214 187.452 114.005C187.309 114.743 186.856 115.383 186.63 116.104C186.195 117.41 186.608 118.829 186.995 120.131L189.036 127.032C189.775 129.525 190.51 132.022 191.476 134.434C192.16 135.959 192.741 137.53 193.216 139.137C193.764 141.303 193.786 143.675 194.956 145.568C195.758 146.759 196.83 147.732 198.08 148.401C202.382 150.934 207.581 151.471 212.505 150.862C217.43 150.254 222.154 148.575 226.839 146.911C227.88 146.588 228.879 146.137 229.815 145.568C233.056 143.384 233.778 138.918 234.383 134.984C235.057 130.599 235.957 126.222 237.554 122.096C238.502 119.639 239.729 117.146 239.52 114.515C239.255 111.02 236.566 108.187 235.901 104.75C235.678 103.601 235.688 102.417 235.931 101.273C236.138 100.591 236.253 99.8834 236.275 99.1696C236.201 97.7286 235.053 96.6187 233.974 95.6924C231.633 93.6815 229.217 91.7811 226.726 89.991C226.6 89.096 227.783 88.7111 228.318 88.004C229.075 87.0061 228.292 85.4219 227.144 84.9565C225.995 84.491 224.708 84.7953 223.511 85.1041C223.589 84.4742 223.468 83.8352 223.164 83.2822C222.861 82.7292 222.392 82.2917 221.827 82.0348C221.263 81.7779 220.633 81.7153 220.031 81.8562C219.429 81.9972 218.888 82.3343 218.487 82.8173C218.169 82.0679 217.662 81.42 217.017 80.9414C216.373 80.4628 215.615 80.1709 214.824 80.0964C211.94 79.8637 211.883 82.1326 210.039 83.3812C208.194 84.6298 206.672 82.9829 205.253 81.7836C204.993 82.4615 204.91 83.1981 205.014 83.9192C205.118 84.6404 205.405 85.3207 205.845 85.8918Z" fill="#3F3D56"/>
<path d="M314.492 236.92C314.492 236.92 314.105 237.868 313.392 239.242C312.312 241.356 310.999 243.334 309.476 245.136L309.359 245.266H308.654L283.536 245.503H282.936L282.862 245.413L277.989 239.466L276.154 237.224L276.08 237.13L275.923 236.942L275.836 236.834L275.723 236.696L272.151 232.337L273.456 226.743L275.679 217.318L275.736 217.09L276.171 215.3L276.48 213.957L277.515 209.581L281.065 194.522L287.373 197.878L294.024 209.961L297.596 216.45H299.554C299.923 216.45 300.772 217.184 301.624 218.03C301.929 218.33 302.233 218.647 302.494 218.925C303.269 219.748 303.882 220.455 303.882 220.455C303.882 220.455 307.053 220.527 307.906 223.096C307.95 223.22 307.986 223.347 308.015 223.476C308.298 224.486 308.666 225.468 309.115 226.412C309.677 227.669 310.381 229.097 311.095 230.525C312.422 233.143 313.77 235.635 314.266 236.539L314.327 236.651L314.492 236.92Z" fill="#E50914"/>
<path opacity="0.1" d="M277.124 216.714L277.08 217.354V217.399L277.006 218.428L276.428 226.712L275.727 236.691L275.527 239.502L275.092 245.516V245.592L228.545 246.04L152.159 246.89V247.266H152.098V246.89V246.765L152.293 240.339L152.668 227.781L152.989 217.135L153.02 216.074C153.039 215.434 153.185 214.805 153.448 214.224C153.711 213.644 154.087 213.125 154.552 212.699C155.017 212.273 155.561 211.949 156.152 211.747C156.743 211.545 157.368 211.469 157.988 211.523C160.041 211.702 162.708 211.921 165.897 212.154L167.202 212.252C185.616 213.568 219.648 215.269 253.989 213.148C254.711 213.107 255.438 213.062 256.164 213.009C261.489 212.664 266.809 212.221 272.078 211.666C272.743 211.594 273.417 211.674 274.05 211.899C274.683 212.123 275.26 212.488 275.741 212.967C276.222 213.446 276.595 214.028 276.834 214.672C277.073 215.315 277.172 216.005 277.124 216.692V216.714Z" fill="black"/>
<path d="M152.146 247.266V246.89L228.545 246.035L275.092 245.588H275.223V245.512L275.658 239.497L275.845 236.812L276.558 226.694L277.119 218.683V218.486C277.145 218.117 277.129 217.746 277.072 217.381C277.074 217.366 277.074 217.351 277.072 217.336C276.952 216.581 276.653 215.868 276.202 215.26C275.723 214.628 275.095 214.132 274.378 213.819C273.661 213.506 272.878 213.385 272.104 213.47C266.835 214.025 261.515 214.468 256.19 214.812C255.464 214.866 254.737 214.911 254.015 214.951C219.674 217.05 185.642 215.349 167.228 214.056L165.923 213.958C162.734 213.725 160.067 213.51 158.014 213.327C156.884 213.228 155.76 213.564 154.857 214.269C153.954 214.974 153.336 215.998 153.124 217.144C153.08 217.386 153.054 217.631 153.046 217.878L152.75 227.795L152.346 240.356L152.154 246.783V246.908V247.284L152.146 247.266Z" fill="#3F3D56"/>
<path opacity="0.1" d="M277.254 219.851L276.719 226.712L275.923 236.937L275.723 239.497L275.288 245.23L275.262 245.516V245.592L275.197 246.255L275.245 245.592H275.118L228.571 246.04L152.159 246.89V246.765L152.372 240.339L152.807 227.781L153.085 219.435C153.099 218.96 153.228 218.497 153.46 218.086C153.693 217.676 154.022 217.332 154.416 217.086C154.909 216.775 155.485 216.634 156.061 216.683C156.974 216.759 158.097 216.848 159.406 216.947C161.533 217.108 164.157 217.296 167.211 217.493C172.866 217.86 179.961 218.254 188.092 218.576C210.713 219.471 241.252 219.771 270.259 217.157C271.564 217.041 272.913 216.911 274.231 216.781C274.753 216.728 275.278 216.83 275.745 217.077C275.877 217.144 276.002 217.225 276.119 217.318C276.498 217.601 276.798 217.98 276.989 218.419C277.033 218.507 277.07 218.598 277.098 218.692C277.229 219.063 277.282 219.458 277.254 219.851Z" fill="black"/>
<path opacity="0.1" d="M129.681 225.978V227.405C129.681 227.924 129.538 228.433 129.269 228.872C128.999 229.311 128.614 229.662 128.158 229.885L110.714 230.229C110.25 230.01 109.857 229.659 109.582 229.217C109.306 228.775 109.16 228.261 109.161 227.737V226.394L129.681 225.978Z" fill="black"/>
<path d="M129.898 230.726L107.168 231.173V227.293L129.898 226.846V230.726Z" fill="#3F3D56"/>
<path opacity="0.1" d="M129.898 230.726L107.168 231.173V227.293L129.898 226.846V230.726Z" fill="black"/>
<path d="M130.768 230.726L108.038 231.173V227.293L130.768 226.846V230.726Z" fill="#3F3D56"/>
<g opacity="0.1">
<path opacity="0.1" d="M206.023 84.4239C205.598 83.8558 205.316 83.1887 205.201 82.4817C205.096 83.1729 205.159 83.88 205.384 84.5403C205.6 84.5198 205.814 84.4808 206.023 84.4239Z" fill="black"/>
<path opacity="0.1" d="M200.498 87.3954C200.416 86.8468 200.363 86.2941 200.337 85.7396C200.337 86.2901 200.337 86.845 200.337 87.3999L200.498 87.3954Z" fill="black"/>
<path opacity="0.1" d="M235.953 102.329C235.977 101.93 236.029 101.534 236.109 101.143C236.315 100.462 236.432 99.7567 236.457 99.0443C236.448 98.8844 236.424 98.7257 236.388 98.5699C236.314 98.9817 236.196 99.3934 236.109 99.8006C235.936 100.631 235.883 101.483 235.953 102.329Z" fill="black"/>
<path opacity="0.1" d="M226.904 88.5008L227.379 88.8544C227.778 88.5569 228.152 88.2245 228.497 87.8609C228.66 87.628 228.762 87.355 228.791 87.0691C228.82 86.7833 228.775 86.4946 228.662 86.2319C228.619 86.3341 228.563 86.4303 228.497 86.5183C227.962 87.2254 226.778 87.6148 226.904 88.5008Z" fill="black"/>
<path opacity="0.1" d="M191.158 92.8059C191 93.1323 190.873 93.4741 190.78 93.8262C191.46 93.4355 192.193 93.1505 192.955 92.9804L191.158 92.8059Z" fill="black"/>
<path opacity="0.1" d="M197.158 87.9369C196.872 87.775 196.598 87.591 196.34 87.3865C196.329 87.5635 196.342 87.7413 196.379 87.9145C196.639 87.9018 196.899 87.9093 197.158 87.9369Z" fill="black"/>
<path opacity="0.1" d="M239.69 114.305C239.511 116.475 238.528 118.565 237.732 120.624C236.136 124.75 235.235 129.126 234.561 133.516C233.956 137.45 233.256 141.916 229.993 144.096C229.061 144.669 228.063 145.12 227.022 145.438C222.332 147.107 217.604 148.781 212.666 149.39C207.728 149.998 202.547 149.466 198.241 146.933C196.992 146.263 195.92 145.291 195.117 144.1C193.956 142.207 193.934 139.835 193.377 137.669C192.902 136.061 192.321 134.488 191.637 132.962C190.676 130.554 189.936 128.039 189.201 125.564C188.519 123.264 187.839 120.962 187.161 118.659C186.937 117.966 186.771 117.255 186.665 116.533C186.495 117.679 186.826 118.878 187.161 120.001C187.839 122.308 188.519 124.609 189.201 126.907C189.936 129.399 190.676 131.896 191.637 134.304C192.321 135.831 192.902 137.404 193.377 139.012C193.925 141.178 193.947 143.55 195.117 145.443C195.92 146.633 196.992 147.605 198.241 148.276C202.547 150.808 207.742 151.341 212.666 150.732C217.591 150.124 222.315 148.45 227.022 146.781C228.063 146.462 229.061 146.011 229.993 145.438C233.234 143.259 233.956 138.793 234.561 134.859C235.235 130.469 236.136 126.092 237.732 121.966C238.681 119.514 239.907 117.021 239.698 114.385C239.698 114.358 239.69 114.331 239.69 114.305Z" fill="black"/>
<path opacity="0.1" d="M187.622 112.573C187.622 112.573 187.622 112.541 187.622 112.523C187.7 111.734 187.632 110.937 187.422 110.174C187.335 109.683 187.278 109.187 187.252 108.688C187.202 109.635 187.259 110.584 187.422 111.517C187.491 111.866 187.57 112.219 187.622 112.573Z" fill="black"/>
<path opacity="0.1" d="M188.949 101.626C189.283 101.048 189.663 100.499 190.084 99.984C189.288 100.767 187.818 100.069 187.509 98.9816C187.395 99.4214 187.395 99.8843 187.509 100.324C187.616 100.652 187.805 100.946 188.058 101.175C188.311 101.403 188.618 101.559 188.949 101.626Z" fill="black"/>
</g>
<path opacity="0.1" d="M297.6 216.446C297.6 216.446 298.979 221.592 297.6 226.067C296.221 230.542 297.6 216.446 297.6 216.446Z" fill="black"/>
<path opacity="0.1" d="M303.473 221.695C303.473 221.695 304.052 228.229 302.747 229.388C301.442 230.547 303.473 221.695 303.473 221.695Z" fill="black"/>
<path d="M86.5657 153.435L130.769 152.988" stroke="#E50914" stroke-width="2" stroke-miterlimit="10"/>
<path d="M86.5657 159.016L130.769 158.573" stroke="#E50914" stroke-width="2" stroke-miterlimit="10"/>
<path d="M86.5657 164.601L130.769 164.153" stroke="#E50914" stroke-width="2" stroke-miterlimit="10"/>
</g>
<defs>
<clipPath id="clip0">
<rect width="453" height="248" fill="white"/>
</clipPath>
</defs>
</svg>
